<svg xmlns="http://www.w3.org/2000/svg" width="350" height="150" viewBox="0 0 350 150">
	<style>
		.background {
			width: 100%;
			height: 100%;
			fill: #262626;
		}
		
		text {
			font-family: -apple-system, BlinkMacSystemFont, 'Segoe UI', Roboto, Oxygen, Ubuntu, Cantarell, 'Open Sans', 'Helvetica Neue', sans-serif;
		}

		.title {
			font-size: 15px;
			fill: #fabd2f;
		}

		.bar-segment {
			height: 100%;
		}

		.lang-name {
			font-size: 11px;
			fill: #b8bb26
		}

		.delta-arrow {
			font-size: 14px;
			fill: #00ff00;
		}
	</style>

	<!-- Background box -->
	<rect class="background" />

	<!-- Title -->
	<text class="title" x="10%" y="20%">
		Most Used Languages
	</text>
	
	<!-- Percentage Bar -->
	<svg x="10%" y="30%" width="80%" height="5%">
		<!-- __template_bar__ <rect class="bar-segment" x="$prev%" width="$cur%" fill="$color" /> __end__ -->
		<rect class="bar-segment" x="0.00%" width="39.15%" fill="#555555" /><rect class="bar-segment" x="39.15%" width="29.47%" fill="#f34b7d" /><rect class="bar-segment" x="68.62%" width="9.58%" fill="#b07219" /><rect class="bar-segment" x="78.21%" width="5.90%" fill="#00ADD8" /><rect class="bar-segment" x="84.11%" width="4.32%" fill="#f1e05a" /><rect class="bar-segment" x="88.43%" width="3.64%" fill="#427819" /><rect class="bar-segment" x="92.07%" width="2.81%" fill="#A97BFF" /><rect class="bar-segment" x="94.88%" width="1.13%" fill="#41b883" />
	</svg>
	
	<!-- Language List -->
	<svg x="10%" y="40%" width="80%" height="50%">
		<!-- __template_list__ <svg y="$yCoord" x="$xCoord">
			<circle cx="5" cy="6" r="5" fill="$color" />
			<text class="lang-name" x="15" y="10">
				$name - $cur%
			</text>
			<text class="delta-arrow" dx="125" y="10" style="opacity: $delta%">
				↑
			</text>
		</svg> __end__ -->
		<svg y="0%" x="0%">
			<circle cx="5" cy="6" r="5" fill="#555555" />
			<text class="lang-name" x="15" y="10">
				C - 39.15%
			</text>
			<text class="delta-arrow" dx="125" y="10" style="opacity: 0.00%">
				↑
			</text>
		</svg><svg y="25%" x="0%">
			<circle cx="5" cy="6" r="5" fill="#f34b7d" />
			<text class="lang-name" x="15" y="10">
				C++ - 29.47%
			</text>
			<text class="delta-arrow" dx="125" y="10" style="opacity: 0.00%">
				↑
			</text>
		</svg><svg y="50%" x="0%">
			<circle cx="5" cy="6" r="5" fill="#b07219" />
			<text class="lang-name" x="15" y="10">
				Java - 9.58%
			</text>
			<text class="delta-arrow" dx="125" y="10" style="opacity: 0.00%">
				↑
			</text>
		</svg><svg y="75%" x="0%">
			<circle cx="5" cy="6" r="5" fill="#00ADD8" />
			<text class="lang-name" x="15" y="10">
				Go - 5.90%
			</text>
			<text class="delta-arrow" dx="125" y="10" style="opacity: 0.00%">
				↑
			</text>
		</svg><svg y="0%" x="50%">
			<circle cx="5" cy="6" r="5" fill="#f1e05a" />
			<text class="lang-name" x="15" y="10">
				JavaScript - 4.32%
			</text>
			<text class="delta-arrow" dx="125" y="10" style="opacity: 0.00%">
				↑
			</text>
		</svg><svg y="25%" x="50%">
			<circle cx="5" cy="6" r="5" fill="#427819" />
			<text class="lang-name" x="15" y="10">
				Makefile - 3.64%
			</text>
			<text class="delta-arrow" dx="125" y="10" style="opacity: 0.00%">
				↑
			</text>
		</svg><svg y="50%" x="50%">
			<circle cx="5" cy="6" r="5" fill="#A97BFF" />
			<text class="lang-name" x="15" y="10">
				Kotlin - 2.81%
			</text>
			<text class="delta-arrow" dx="125" y="10" style="opacity: 0.00%">
				↑
			</text>
		</svg><svg y="75%" x="50%">
			<circle cx="5" cy="6" r="5" fill="#41b883" />
			<text class="lang-name" x="15" y="10">
				Vue - 1.13%
			</text>
			<text class="delta-arrow" dx="125" y="10" style="opacity: 0.00%">
				↑
			</text>
		</svg>
	</svg>
</svg>
